<?xml version="1.0" standalone="no"?>
<!DOCTYPE svg PUBLIC "-//W3C//DTD SVG 20010904//EN"
 "http://www.w3.org/TR/2001/REC-SVG-20010904/DTD/svg10.dtd">
<svg version="1.0" xmlns="http://www.w3.org/2000/svg"
 width="280.000000pt" height="280.000000pt" viewBox="0 0 280.000000 280.000000"
 preserveAspectRatio="xMidYMid meet">
<metadata>
Created by potrace 1.11, written by Peter Selinger 2001-2013
</metadata>
<g transform="translate(0.000000,280.000000) scale(0.100000,-0.100000)"
fill="#000000" stroke="none">
<path d="M1390 2694 c-163 -30 -445 -121 -503 -161 -43 -30 -73 -67 -82 -104
-3 -13 -24 -35 -46 -49 -21 -13 -51 -41 -65 -62 -24 -33 -27 -49 -29 -138 -2
-54 -6 -104 -10 -110 -9 -15 12 -184 33 -269 l19 -74 -40 -39 -40 -38 6 -98
c6 -116 21 -152 97 -235 33 -37 60 -57 78 -59 24 -3 28 -8 34 -50 18 -127 69
-218 159 -278 l62 -43 -124 -49 c-68 -27 -160 -60 -204 -75 -103 -33 -151 -58
-169 -86 -12 -18 -13 -77 -9 -349 l6 -328 343 0 343 0 -18 43 c-50 119 -120
421 -127 552 l-5 100 41 -79 c23 -43 45 -75 49 -70 4 5 29 35 56 67 34 41 51
54 56 45 4 -7 24 -69 43 -137 30 -102 38 -152 47 -279 6 -85 9 -174 7 -198 -2
-25 1 -44 7 -44 12 0 1 377 -13 432 -9 34 -5 44 47 137 32 55 60 103 63 107 3
3 32 -27 64 -66 l57 -71 36 58 36 58 3 -60 c6 -112 -19 -220 -135 -578 -5 -16
15 -17 326 -17 l331 0 0 333 0 333 -32 31 c-40 37 -69 53 -100 53 -13 0 -103
31 -202 69 l-178 68 60 43 c95 66 142 153 164 308 11 78 13 82 38 82 19 0 35
12 62 48 69 93 82 127 86 240 5 123 -6 158 -55 179 -33 13 -34 15 -28 57 9 55
-12 321 -31 405 -21 92 -46 144 -100 201 -34 36 -60 54 -99 66 -43 14 -54 22
-64 49 -31 88 -102 126 -236 131 -49 1 -101 0 -115 -2z m415 -486 c32 -28 63
-117 76 -222 6 -44 20 -107 32 -140 20 -56 22 -79 21 -258 l-1 -197 -37 -77
c-25 -52 -40 -74 -45 -66 -6 10 -12 4 -21 -18 -7 -17 -16 -33 -20 -35 -4 -3
-25 13 -47 34 -44 45 -107 66 -162 56 -20 -4 -70 -18 -111 -32 -93 -31 -126
-31 -215 1 -138 49 -196 43 -271 -26 l-43 -40 -18 36 c-11 24 -19 32 -24 24
-5 -8 -24 20 -50 77 -42 89 -42 92 -50 240 -5 83 -11 161 -14 175 -3 14 4 56
15 95 13 46 20 100 20 155 0 69 4 94 23 130 19 40 28 47 72 58 28 8 151 18
275 23 124 5 257 13 295 18 39 4 116 9 172 10 92 1 104 -1 128 -21z m272 -460
c15 -17 18 -38 18 -127 0 -98 -2 -110 -29 -157 -36 -67 -85 -126 -97 -119 -19
12 -9 55 17 71 26 17 54 63 54 86 -1 7 -9 -3 -20 -23 -10 -19 -26 -41 -34 -48
-14 -12 -16 -3 -16 91 0 72 4 110 14 123 13 18 14 17 31 -8 12 -19 16 -38 12
-62 -3 -19 -2 -35 4 -35 5 0 9 22 9 48 0 36 -5 54 -20 67 -20 18 -20 18 7 49
l28 30 -29 -18 c-27 -17 -29 -17 -23 -1 4 9 10 27 13 40 7 27 33 24 61 -7z
m-1353 -74 c11 -28 6 -34 -21 -29 -16 3 -21 2 -13 -1 8 -4 25 -16 38 -27 21
-19 21 -22 6 -45 -19 -29 -21 -89 -4 -105 9 -9 10 -3 5 24 -4 23 -2 46 5 60
13 23 13 23 30 -12 19 -38 46 -167 36 -176 -3 -4 -17 4 -31 17 -28 26 -34 17
-8 -12 9 -10 24 -18 35 -18 11 0 18 -7 18 -19 0 -11 3 -26 6 -35 4 -11 0 -16
-14 -16 -24 0 -103 86 -134 145 -30 57 -32 212 -4 244 23 25 42 27 50 5z m497
-475 c92 -31 230 -31 326 0 113 35 172 11 159 -66 -20 -112 -118 -223 -197
-223 -22 0 -39 5 -39 10 0 13 -137 13 -145 0 -3 -5 -25 -10 -49 -10 -88 0
-182 94 -207 206 -13 58 -6 78 36 94 31 13 48 12 116 -11z m469 -427 l13 -68
-39 -62 c-22 -34 -42 -61 -45 -60 -4 2 -27 28 -53 60 l-46 56 73 71 c39 39 75
71 79 71 3 0 12 -31 18 -68z m-425 -69 c18 -10 16 -14 -29 -67 -26 -31 -49
-56 -52 -56 -2 0 -20 31 -39 70 -22 44 -35 84 -35 109 0 76 7 77 74 13 33 -32
70 -63 81 -69z m293 64 c-49 -45 -82 -89 -124 -162 -31 -55 -58 -101 -59 -103
-1 -1 -15 43 -31 98 -27 96 -31 102 -69 125 -47 27 -113 93 -80 80 11 -5 55
-17 99 -29 70 -18 86 -18 149 -7 39 6 94 22 122 36 27 13 52 24 55 24 3 0 -25
-28 -62 -62z"/>
<path d="M1565 1876 c-62 -19 -85 -35 -85 -57 0 -19 4 -20 63 -12 86 10 196 8
231 -6 44 -18 45 -3 2 35 -61 53 -130 66 -211 40z"/>
<path d="M1015 1841 c-37 -16 -101 -78 -92 -87 2 -3 21 3 43 13 30 13 68 17
161 18 120 0 123 1 123 22 0 46 -159 69 -235 34z"/>
<path d="M1588 1730 c-44 -13 -96 -49 -103 -71 -5 -15 1 -29 21 -50 28 -29 29
-29 145 -29 112 0 119 1 148 26 17 14 31 32 31 39 0 21 -66 73 -107 84 -44 13
-96 13 -135 1z m0 -45 c-8 -19 -8 -31 0 -50 16 -35 16 -35 -16 -35 -17 0 -37
10 -50 23 l-22 23 22 21 c24 21 58 42 70 43 4 0 2 -11 -4 -25z m92 10 c0 -8
-7 -15 -15 -15 -8 0 -15 7 -15 15 0 8 7 15 15 15 8 0 15 -7 15 -15z m68 1 c15
-8 35 -23 45 -34 17 -19 17 -20 -9 -41 -15 -12 -41 -21 -61 -21 -31 0 -33 1
-22 21 6 12 9 37 6 55 -6 38 1 41 41 20z"/>
<path d="M1049 1701 c-44 -9 -106 -46 -120 -73 -9 -17 -6 -25 17 -49 28 -29
28 -29 150 -29 114 0 125 2 150 23 21 19 26 29 20 50 -13 53 -130 95 -217 78z
m3 -33 c-15 -15 -16 -53 -2 -79 10 -17 7 -19 -26 -19 -38 0 -74 22 -74 46 0
14 77 64 100 64 11 0 11 -3 2 -12z m37 -9 c-16 -10 -23 -4 -14 10 3 6 11 8 17
5 6 -4 5 -9 -3 -15z m99 7 c15 -8 36 -24 47 -36 19 -22 19 -22 -5 -41 -22 -17
-80 -27 -80 -14 0 3 6 14 12 25 10 15 10 27 1 50 -13 34 -12 35 25 16z"/>
<path d="M1465 1476 c2 -22 10 -44 16 -50 9 -8 10 -6 4 9 -4 11 -11 34 -16 50
-8 27 -8 26 -4 -9z"/>
<path d="M1273 1355 c-3 -9 -3 -18 -1 -21 3 -3 8 4 11 16 6 23 -1 27 -10 5z"/>
<path d="M1503 1335 c2 -25 -2 -30 -31 -36 -19 -4 -40 -16 -48 -28 -20 -28
-48 -27 -67 3 -11 15 -28 25 -51 28 -19 2 -32 0 -30 -4 3 -4 16 -8 30 -8 13 0
34 -11 46 -25 27 -31 51 -32 80 -1 13 14 37 26 53 28 23 2 31 9 33 27 2 13 -1
28 -7 34 -7 7 -10 2 -8 -18z"/>
<path d="M1550 1173 c-81 -16 -260 -21 -352 -9 -36 5 -58 4 -58 -2 0 -5 15
-32 33 -58 69 -104 228 -142 344 -81 55 29 106 82 128 135 17 38 19 38 -95 15z
m58 -35 c-22 -32 -44 -36 -233 -37 -169 -1 -195 3 -195 34 0 8 27 8 93 2 82
-7 283 5 296 19 2 2 15 4 29 4 23 0 24 -1 10 -22z"/>
<path d="M1416 463 c-11 -11 -6 -23 9 -23 8 0 15 4 15 9 0 13 -16 22 -24 14z"/>
<path d="M1432 259 c2 -6 8 -10 13 -10 5 0 11 4 13 10 2 6 -4 11 -13 11 -9 0
-15 -5 -13 -11z"/>
<path d="M1435 30 c-4 -6 -3 -16 3 -22 6 -6 12 -6 17 2 4 6 3 16 -3 22 -6 6
-12 6 -17 -2z"/>
</g>
</svg>
